<svg viewBox="0 0 372.98 300.799" xmlns="http://www.w3.org/2000/svg"><path d="m204.485 281.458q8.947 7.99 17.458 15.584c8 7.186 17.213 2.65 20.859-9.556 9.614-32.634 18.681-64.675 26.539-96.1q-12.828 11.51-25.5 23.069zm-153.657-205.814q-19.806 7.77-39.867 15.5c-12.047 4.656-14.626 13.756-5.425 20.814 33.922 26.127 70.264 56.542 105.774 87.257q-4.515-16.317-8.608-32.4c-19.283-31.865-37.402-62.606-51.874-91.171zm245.706-58.654c.26-10.841-8.081-18.559-18.274-16.718-26.123 4.716-53.4 12.1-81.571 21.147a846.261 846.261 0 0 1 99.411 6.981z" fill="#27aae1"/><g fill="#ffe300"><path d="m95.924 2.029c-10.192-1.58-18.365 6.161-17.86 16.793l.575 9.671a846.45 846.45 0 0 1 100.088-7.074c-28.547-8.479-56.227-15.266-82.803-19.39zm15.386 197.186c7.857 28.369 16.594 57.255 25.665 86.623 3.779 12.086 12.9 16.292 20.69 8.873q6.632-6.282 13.573-12.829c-11.648-20.778-24-41.607-36.452-62.226q-11.644-10.2-23.476-20.441z"/><path d="m361.832 86.285q-18.015-6.633-35.824-13.314c-13.706 27.363-30.872 56.777-49.268 87.295q-3.479 15.459-7.4 31.118c33.289-29.875 67.113-59.2 98.474-84.541 8.843-7.109 5.999-16.117-5.982-20.558zm-259.132 80.534q4.082 16.083 8.608 32.4 11.822 10.221 23.476 20.441z"/><path d="m243.844 214.453q12.645-11.532 25.5-23.069 3.915-15.663 7.4-31.118z"/></g><path d="m196.689 21.419q-8.984-.1-17.962 0 4.645 1.381 9.322 2.818 4.334-1.437 8.64-2.818zm-118.05 7.074q-12.628 1.64-25.3 3.66c-11.405 1.86-17.979 10.685-13.939 19.647 3.466 7.752 7.305 15.715 11.424 23.847q15.747-6.177 31.306-12.287-2.292-17.607-3.491-34.867zm247.369 44.478c3.608-7.2 6.986-14.271 10.075-21.174 4.04-8.959-2.54-17.783-13.932-19.644q-13.051-2.079-26.051-3.753-.768 16.116-2.477 32.494 16.089 5.974 32.385 12.077zm-154.77 208.911q3.024 5.392 5.985 10.778c5.949 10.852 15.09 10.852 21.038 0q3.071-5.6 6.224-11.2-8.241-7.359-16.828-15.014-8.38 7.854-16.419 15.436z" fill="#005baa"/><g fill="#2484c6"><path d="m293.623 60.893q1.7-16.377 2.477-32.494a846.261 846.261 0 0 0 -99.411-6.98q-4.305 1.383-8.64 2.818c34.113 10.492 69.425 23.235 105.574 36.656zm-105.966 205.551q8.569 7.639 16.828 15.014c12.559-22.387 25.938-44.832 39.359-67.005z"/><path d="m82.13 63.36q-15.552 6.087-31.3 12.284c14.47 28.565 32.589 59.306 51.87 91.175-8.976-35.37-16.2-69.883-20.57-103.459zm194.61 96.906c18.4-30.518 35.562-59.932 49.268-87.295q-16.293-6.084-32.385-12.078c-3.346 32.37-9.259 65.507-16.883 99.373z"/><path d="m188.049 24.237q-4.677-1.439-9.322-2.818a846.45 846.45 0 0 0 -100.088 7.074q1.172 17.259 3.491 34.867c36.29-14.208 71.737-27.811 105.919-39.123zm-53.263 195.419 36.452 62.226q8.037-7.579 16.419-15.438z"/></g><path d="m188.049 24.237c-34.182 11.312-69.629 24.915-105.919 39.123 4.37 33.576 11.594 68.089 20.57 103.459l32.084 52.837 52.871 46.788 56.187-51.991 32.9-54.187c7.624-33.869 13.537-67 16.883-99.373-36.151-13.421-71.463-26.164-105.576-36.656z" fill="#005baa"/><path d="m134.721 159.9h-9.914c-.586 0-.8-.532-1.068-1.066l-6.839-13.143c-.812 0-1.4 0-3.066-.054v13.195a1.077 1.077 0 0 1 -1.084 1.066h-8.72a1.118 1.118 0 0 1 -1.131-1.066v-35.227c0-2.584.861-3.176 3.124-3.556a100.682 100.682 0 0 1 11.362-.7c10.013 0 16.857 3.177 16.857 13.029v.861c0 5.767-3.185 9.158-6.573 10.615l7.808 14.649a1.3 1.3 0 0 1 .163.592.826.826 0 0 1 -.919.805zm-11.364-27.515c0-2.53-1.775-3.816-5.382-3.816-.379 0-2.589 0-4.146.1v8.567c.267.053 3.605.053 3.932.053 4.145 0 5.6-1.456 5.6-3.99zm40.769 27.361a78.02 78.02 0 0 1 -10.617.64c-6.893 0-13.785-1.611-13.785-12.056v-16.917c0-10.392 6.892-12.059 13.785-12.059a77.538 77.538 0 0 1 10.617.643c.7.109 1.068.432 1.068 1.083v6.569a1.066 1.066 0 0 1 -1.068 1.067h-10.887c-1.931 0-2.578.6-2.578 2.7v3.929h13.246a1.088 1.088 0 0 1 1.078 1.081v6.352a1.089 1.089 0 0 1 -1.078 1.084h-13.246v4.471c0 2.1.647 2.692 2.578 2.692h10.887a1.063 1.063 0 0 1 1.068 1.064v6.57c0 .648-.372.973-1.068 1.087zm30.586-.324a25.812 25.812 0 0 1 -7.537.964c-9.911 0-16.6-5.385-16.6-17.712v-5.554c0-12.331 6.686-17.715 16.6-17.715a25.734 25.734 0 0 1 7.537.965c.86.271 1.185.445 1.185 1.189v6.891c0 .759-.222 1.133-1.136 1.033a67.706 67.706 0 0 0 -7.534-.5c-2.914 0-5.554 1.3-5.554 8.132v5.554c0 6.779 2.589 8.129 5.554 8.129a60.823 60.823 0 0 0 7.534-.491c.965-.1 1.136.385 1.136 1.033v6.892c.003.694-.325.918-1.185 1.19zm16.637.478h-8.832a1.078 1.078 0 0 1 -1.083-1.066v-37.92a1.038 1.038 0 0 1 1.083-1.02h8.832a1.031 1.031 0 0 1 1.075 1.02v37.92a1.071 1.071 0 0 1 -1.075 1.066zm31.882-31.127h-10.878c-1.945 0-2.59.592-2.59 2.695v3.874h13.247a1.09 1.09 0 0 1 1.083 1.081v6.352a1.092 1.092 0 0 1 -1.083 1.084h-13.247v14.973a1.07 1.07 0 0 1 -1.072 1.066h-8.784a1.069 1.069 0 0 1 -1.073-1.066v-27.364c0-10.388 6.9-12.063 13.784-12.063a78.008 78.008 0 0 1 10.613.644c.7.116 1.076.44 1.076 1.083v6.568a1.072 1.072 0 0 1 -1.076 1.073zm31.502 30.973a78.062 78.062 0 0 1 -10.611.64c-6.892 0-13.786-1.611-13.786-12.056v-16.917c0-10.392 6.894-12.059 13.786-12.059a77.58 77.58 0 0 1 10.611.643c.7.109 1.075.432 1.075 1.083v6.569a1.073 1.073 0 0 1 -1.075 1.067h-10.875c-1.946 0-2.592.6-2.592 2.7v3.929h13.248a1.087 1.087 0 0 1 1.08 1.081v6.352a1.089 1.089 0 0 1 -1.08 1.084h-13.248v4.471c0 2.1.646 2.692 2.592 2.692h10.875a1.07 1.07 0 0 1 1.075 1.064v6.57c0 .648-.376.973-1.075 1.087zm-159.978-49.938c-4.389 0-11.746-1.914-11.746-14.7v-5.9c0-12.8 7.357-14.707 11.746-14.707a60.923 60.923 0 0 1 7.635.433l.192.022a1.637 1.637 0 0 1 1.55 1.544v.54a1.27 1.27 0 0 1 -1.394 1.345 2.664 2.664 0 0 1 -.32-.021c-1.5-.163-4.858-.394-7.663-.394-5.362 0-8.2 3.883-8.2 11.238v5.9c0 7.352 2.834 11.237 8.2 11.237 2.808 0 6.165-.234 7.651-.4a3.161 3.161 0 0 1 .335-.015 1.263 1.263 0 0 1 1.391 1.338v.535a1.628 1.628 0 0 1 -1.555 1.55l-.187.022a61.408 61.408 0 0 1 -7.635.433zm23.404 0c-4.566 0-12.231-1.932-12.231-14.879v-5.54c0-12.952 7.665-14.888 12.231-14.888s12.24 1.936 12.24 14.888v5.54c.001 12.947-7.664 14.879-12.24 14.879zm0-31.838c-5.84 0-8.68 3.732-8.68 11.419v5.54c0 7.685 2.84 11.416 8.68 11.416s8.689-3.731 8.689-11.416v-5.54c0-7.689-2.836-11.419-8.689-11.419zm38.128 31.838a2.986 2.986 0 0 1 -2.012-.477 4.245 4.245 0 0 1 -1.031-1.3l-14.144-28.343v28.206a1.6 1.6 0 0 1 -1.547 1.647h-.453a1.6 1.6 0 0 1 -1.549-1.647v-30.4a3.046 3.046 0 0 1 5.845-1.144l14.1 28.279v-28.255a1.548 1.548 0 0 1 1.504-1.649h.534a1.572 1.572 0 0 1 1.561 1.649v30.361a2.852 2.852 0 0 1 -2.808 3.073zm14.582-.267c-4.178 0-6.207-1.9-6.207-5.8v-23.215c0-3.905 2.029-5.8 6.207-5.8h11.531a1.566 1.566 0 0 1 1.637 1.555v.363a1.52 1.52 0 0 1 -1.637 1.5h-11.531c-2.033 0-2.657.329-2.657 2.378v9.048h14.188a1.52 1.52 0 0 1 1.637 1.508v.446a1.565 1.565 0 0 1 -1.637 1.555h-14.19v10.658c0 2.05.624 2.377 2.657 2.377h11.533a1.522 1.522 0 0 1 1.637 1.506v.358a1.567 1.567 0 0 1 -1.637 1.559zm28.943.267c-4.38 0-11.75-1.914-11.75-14.7v-5.9c0-12.8 7.37-14.707 11.75-14.707a60.924 60.924 0 0 1 7.64.433l.2.022a1.637 1.637 0 0 1 1.544 1.544v.54a1.27 1.27 0 0 1 -1.392 1.345 2.781 2.781 0 0 1 -.324-.021 84.05 84.05 0 0 0 -7.665-.394c-5.358 0-8.2 3.883-8.2 11.238v5.9c0 7.352 2.838 11.237 8.2 11.237a82.18 82.18 0 0 0 7.658-.4 3.112 3.112 0 0 1 .331-.015 1.264 1.264 0 0 1 1.392 1.338v.535a1.627 1.627 0 0 1 -1.548 1.55l-.193.022a61.409 61.409 0 0 1 -7.643.433zm22.481-.267a1.606 1.606 0 0 1 -1.555-1.647v-29.746h-7.424a1.493 1.493 0 0 1 -1.641-1.468v-.4a1.568 1.568 0 0 1 1.641-1.555h18.358a1.565 1.565 0 0 1 1.642 1.555v.4a1.491 1.491 0 0 1 -1.642 1.468h-7.381v29.746a1.6 1.6 0 0 1 -1.553 1.647zm31.383.13a1.539 1.539 0 0 1 -1.476-1.158l-3.581-11.54h-11.706l-3.5 11.558a1.649 1.649 0 0 1 -1.474 1.14h-.583a1.417 1.417 0 0 1 -1.173-.553 1.771 1.771 0 0 1 -.214-1.573l9.171-30.285a3.692 3.692 0 0 1 3.67-2.76 3.638 3.638 0 0 1 3.621 2.712l9.169 30.319a1.777 1.777 0 0 1 -.2 1.591 1.429 1.429 0 0 1 -1.188.548zm-6.028-16.252-4.57-15.212c-.1-.326-.184-.326-.268-.326a.394.394 0 0 0 -.17.021.7.7 0 0 0 -.1.244l-4.618 15.273z" fill="#fff"/></svg>